# Blender 3.3.0
# www.blender.org
o Plane.010
v -1.000000 0.000000 -3.000000
v -1.000000 0.000000 -1.000000
v 1.000000 0.000000 1.000000
v 3.000000 0.000000 1.000000
v 1.000000 0.000000 -1.000000
v 3.000000 0.000000 -1.000000
v 1.000000 0.000000 -3.000000
v 3.000000 0.000000 -3.000000
v 3.000000 0.000000 3.000000
v -1.000000 0.000000 3.000000
v 1.000000 0.000000 3.000000
v -3.000000 0.000000 3.000000
v -1.000000 0.000000 1.000000
v -3.000000 0.000000 1.000000
v -3.000000 0.000000 -1.000000
v -3.000000 0.000000 -3.000000
vn -0.0000 1.0000 -0.0000
vt 1.383983 0.999398
vt 1.383983 0.438824
vt -0.383983 -0.121751
vt -2.151949 -0.121751
vt -0.383983 0.438824
vt -2.151949 0.438824
vt -0.383983 0.999399
vt -2.151948 0.999399
vt -2.151949 -0.682325
vt 1.383984 -0.682325
vt -0.383982 -0.682325
vt 3.151949 -0.682325
vt 1.383983 -0.121751
vt 3.151948 -0.121751
vt 3.151948 0.438824
vt 3.151948 0.999398
s 0
f 5/5/1 1/1/1 2/2/1
f 3/3/1 2/2/1 13/13/1
f 4/4/1 5/5/1 3/3/1
f 6/6/1 7/7/1 5/5/1
f 9/9/1 3/3/1 11/11/1
f 11/11/1 13/13/1 10/10/1
f 10/10/1 14/14/1 12/12/1
f 13/13/1 15/15/1 14/14/1
f 2/2/1 16/16/1 15/15/1
f 5/5/1 7/7/1 1/1/1
f 3/3/1 5/5/1 2/2/1
f 4/4/1 6/6/1 5/5/1
f 6/6/1 8/8/1 7/7/1
f 9/9/1 4/4/1 3/3/1
f 11/11/1 3/3/1 13/13/1
f 10/10/1 13/13/1 14/14/1
f 13/13/1 2/2/1 15/15/1
f 2/2/1 1/1/1 16/16/1
