# Blender 3.1.0
# www.blender.org
o Plane.010
v -1.000000 0.000000 -3.000000
v -1.000000 0.000000 -1.000000
v 1.000000 0.000000 1.000000
v 3.000000 0.000000 1.000000
v 1.000000 0.000000 -1.000000
v 3.000000 0.000000 -1.000000
v 1.000000 0.000000 -3.000000
v 3.000000 0.000000 -3.000000
v 3.000000 0.000000 3.000000
v -1.000000 0.000000 3.000000
v 1.000000 0.000000 3.000000
v -3.000000 0.000000 3.000000
v -1.000000 0.000000 1.000000
v -3.000000 0.000000 1.000000
v -3.000000 0.000000 -1.000000
v -3.000000 0.000000 -3.000000
vn -0.0000 1.0000 -0.0000
vt 0.336822 0.156904
vt 0.336822 0.051953
vt 0.667824 -0.052999
vt 0.998826 -0.052999
vt 0.667824 0.051953
vt 0.998826 0.051953
vt 0.667824 0.156904
vt 0.998826 0.156904
vt 0.998826 -0.157951
vt 0.336822 -0.157951
vt 0.667824 -0.157951
vt 0.005820 -0.157951
vt 0.336822 -0.052999
vt 0.005820 -0.052999
vt 0.005820 0.051953
vt 0.005820 0.156904
s 0
f 2/2/1 5/5/1 7/7/1 1/1/1
f 13/13/1 3/3/1 5/5/1 2/2/1
f 3/3/1 4/4/1 6/6/1 5/5/1
f 5/5/1 6/6/1 8/8/1 7/7/1
f 11/11/1 9/9/1 4/4/1 3/3/1
f 10/10/1 11/11/1 3/3/1 13/13/1
f 12/12/1 10/10/1 13/13/1 14/14/1
f 14/14/1 13/13/1 2/2/1 15/15/1
f 15/15/1 2/2/1 1/1/1 16/16/1
