# Blender 3.1.0
# www.blender.org
o Plane.010
v -1.000000 0.000000 -1.000000
v 1.000000 0.000000 -1.000000
v -1.000000 0.000000 -3.000000
v 1.000000 0.000000 -3.000000
v -1.000000 0.000000 1.000000
v 1.000000 0.000000 1.000000
v -1.000000 0.000000 -1.000000
v 1.000000 0.000000 -1.000000
v 1.000000 0.000000 1.000000
v 3.000000 0.000000 1.000000
v 1.000000 0.000000 -1.000000
v 3.000000 0.000000 -1.000000
v 1.000000 0.000000 -1.000000
v 3.000000 0.000000 -1.000000
v 1.000000 0.000000 -3.000000
v 3.000000 0.000000 -3.000000
v 1.000000 0.000000 3.000000
v 3.000000 0.000000 3.000000
v 1.000000 0.000000 1.000000
v 3.000000 0.000000 1.000000
v -1.000000 0.000000 3.000000
v 1.000000 0.000000 3.000000
v -1.000000 0.000000 1.000000
v 1.000000 0.000000 1.000000
v -3.000000 0.000000 3.000000
v -1.000000 0.000000 3.000000
v -3.000000 0.000000 1.000000
v -1.000000 0.000000 1.000000
v -3.000000 0.000000 1.000000
v -1.000000 0.000000 1.000000
v -3.000000 0.000000 -1.000000
v -1.000000 0.000000 -1.000000
v -3.000000 0.000000 -1.000000
v -1.000000 0.000000 -1.000000
v -3.000000 0.000000 -3.000000
v -1.000000 0.000000 -3.000000
vn -0.0000 1.0000 -0.0000
vt 0.498737 0.504558
vt -0.919252 0.054952
vt -0.919253 0.954165
vt -2.337243 0.504558
vt 1.916729 0.054951
vt 0.498740 -0.394656
vt 0.498737 0.504558
vt -0.919252 0.054952
vt 0.498740 -0.394656
vt -0.919250 -0.844262
vt -0.919252 0.054952
vt -2.337242 -0.394655
vt -0.919252 0.054952
vt -2.337242 -0.394655
vt -2.337243 0.504558
vt -3.755232 0.054952
vt 1.916731 -0.844262
vt 0.498741 -1.293869
vt 0.498740 -0.394656
vt -0.919250 -0.844262
vt 3.334720 -0.394656
vt 1.916731 -0.844262
vt 1.916729 0.054951
vt 0.498740 -0.394656
vt 4.752710 0.054951
vt 3.334720 -0.394656
vt 3.334719 0.504557
vt 1.916729 0.054951
vt 3.334719 0.504557
vt 1.916729 0.054951
vt 1.916727 0.954165
vt 0.498737 0.504558
vt 1.916727 0.954165
vt 0.498737 0.504558
vt 0.498736 1.403771
vt -0.919253 0.954165
s 0
f 2/2/1 3/3/1 1/1/1
f 6/6/1 7/7/1 5/5/1
f 10/10/1 11/11/1 9/9/1
f 14/14/1 15/15/1 13/13/1
f 18/18/1 19/19/1 17/17/1
f 22/22/1 23/23/1 21/21/1
f 26/26/1 27/27/1 25/25/1
f 30/30/1 31/31/1 29/29/1
f 34/34/1 35/35/1 33/33/1
f 2/2/1 4/4/1 3/3/1
f 6/6/1 8/8/1 7/7/1
f 10/10/1 12/12/1 11/11/1
f 14/14/1 16/16/1 15/15/1
f 18/18/1 20/20/1 19/19/1
f 22/22/1 24/24/1 23/23/1
f 26/26/1 28/28/1 27/27/1
f 30/30/1 32/32/1 31/31/1
f 34/34/1 36/36/1 35/35/1
